:SAMPLES-PER-SECOND 30
:FULLY-SPECIFIED
:DEGREES
650
root  48.2209 35.0717 46.8348 -167.911 38.4213 -176.603
LeftUpLeg  -15.4892 12.4269 2.3969
LeftLeg  7.7818 -4.05559 -0.29136
LeftFoot  6.62787 0.0250872 -0.446657
LeftToes  -30.9158 1.61378e-006 8.80029e-008
Spine  2.21318 1.91665 -1.14749
Spine1  4.33107 3.79265 -1.88951
RightShoulder  -0.0101664 9.07198 5.56865
RightArm  -58.2939 -31.1019 63.4285
RightForeArm  34.6228 6.57602 1.16271
RightHand  1.83145 -15.5872 -12.9466
LeftShoulder1  0.0282185 0.684561 -10.4619
LeftArm  -33.0566 8.76087 -56.269
LeftForeArm  31.9641 -15.0717 -2.71414
LeftHand  0.121412 1.79075 6.99417
HEad  -7.74949 3.93987 -3.77374
RightUpLeg  -11.4761 -17.1407 -2.1388
RightLeg  19.9007 -6.8344 -1.98227
RightFoot  2.09072 0.0116611 -0.229254
RightToes  -37.1705 -0.221894 -0.317995
651
root  48.0387 35.0364 46.7737 -168.265 40.9743 -177.235
LeftUpLeg  -15.5333 13.0268 1.48775
LeftLeg  8.32153 -2.48492 -0.202561
LeftFoot  6.21594 0.0135794 -0.242581
LeftToes  -27.7744 1.61378e-006 8.80029e-008
Spine  2.1287 2.17082 -1.3675
Spine1  4.16116 4.32618 -2.33855
RightShoulder  -0.00935571 8.46491 5.41096
RightArm  -54.4885 -32.2667 62.6515
RightForeArm  36.2499 7.74365 1.36934
RightHand  1.37217 -12.5673 -12.0372
LeftShoulder1  0.0251763 0.984283 -10.8893
LeftArm  -33.0904 9.946 -55.9479
LeftForeArm  32.2131 -14.9403 -2.68917
LeftHand  0.117859 1.85844 6.91433
HEad  -7.87664 6.11671 -4.43945
RightUpLeg  -10.8047 -17.8372 -2.42936
RightLeg  19.4602 -8.15591 -2.29457
RightFoot  1.52292 0.00862856 -0.190659
RightToes  -38.1298 -0.218447 -0.315362
652
root  47.8759 34.9856 46.762 -168.776 43.8137 -177.989
LeftUpLeg  -15.5868 13.5039 0.576057
LeftLeg  8.82938 -0.425187 -0.0393212
LeftFoot  5.89213 0.000596479 -0.0115993
LeftToes  -23.4526 1.61378e-006 8.80029e-008
Spine  2.10671 2.37442 -1.5956
Spine1  4.11467 4.75773 -2.7963
RightShoulder  -0.00796369 8.06413 5.0111
RightArm  -51.5457 -32.3808 62.9316
RightForeArm  35.7103 9.5804 1.69979
RightHand  1.23175 -10.6232 -12.8129
LeftShoulder1  0.022406 1.315 -11.3457
LeftArm  -33.5465 11.0534 -55.9046
LeftForeArm  32.8464 -14.5645 -2.61802
LeftHand  0.11697 1.87797 6.8929
HEad  -8.44463 8.63864 -5.39991
RightUpLeg  -10.2008 -17.9948 -2.76622
RightLeg  18.22 -9.68137 -2.49494
RightFoot  1.10389 0.00631432 -0.153368
RightToes  -39.1948 -0.212083 -0.310529
653
root  47.7331 34.9162 46.8152 -169.291 46.776 -178.672
LeftUpLeg  -15.9991 14.1128 -0.137716
LeftLeg  9.97045 1.91074 0.209374
LeftFoot  5.26395 -0.00978832 0.212924
LeftToes  -21.0965 1.61378e-006 8.80029e-008
Spine  2.09093 2.51462 -1.78335
Spine1  4.08226 5.06082 -3.17846
RightShoulder  -0.00585886 7.63966 4.57212
RightArm  -49.8738 -31.2373 63.7967
RightForeArm  34.4404 11.3898 2.02971
RightHand  1.12347 -9.62344 -12.9083
LeftShoulder1  0.0203031 1.60946 -11.7556
LeftArm  -34.2804 12.1186 -56.1692
LeftForeArm  33.5434 -13.9468 -2.50183
LeftHand  0.120324 1.87192 6.95924
HEad  -9.23896 11.2438 -6.38541
RightUpLeg  -9.55989 -17.3713 -2.94727
RightLeg  15.6864 -11.1906 -2.35938
RightFoot  0.087975 -0.00489747 0.0292978
RightToes  -37.0534 -0.195382 -0.297879
654
root  47.5985 34.8748 46.9218 -169.358 49.8784 -178.82
LeftUpLeg  -16.4605 14.7541 -0.351265
LeftLeg  11.0194 4.25318 0.545892
LeftFoot  4.73727 -0.0162526 0.392907
LeftToes  -19.6478 1.61378e-006 8.80029e-008
Spine  2.01311 2.66642 -1.84726
Spine1  3.92972 5.37883 -3.32026
RightShoulder  -0.00311745 7.29546 4.29985
RightArm  -49.0561 -28.8164 64.7392
RightForeArm  32.84 11.4778 2.04707
RightHand  0.983994 -9.30402 -11.6701
LeftShoulder1  0.0188764 1.6323 -12.1122
LeftArm  -35.3573 13.25 -56.7685
LeftForeArm  34.0858 -13.106 -2.34499
LeftHand  0.127462 1.98546 6.9515
HEad  -10.1852 13.7545 -7.29605
RightUpLeg  -8.83559 -14.4747 -2.96714
RightLeg  12.2603 -11.7548 -1.75557
RightFoot  0.144292 -0.00333311 0.0181847
RightToes  -32.8381 -0.163945 -0.271199
655
root  47.4704 34.8609 47.0623 -169.37 53.0998 -178.898
LeftUpLeg  -16.6798 15.234 -0.435993
LeftLeg  11.5233 6.95769 0.954452
LeftFoot  4.63813 -0.0245762 0.606843
LeftToes  -18.7874 1.61378e-006 8.80029e-008
Spine  1.9132 2.83635 -1.87226
Spine1  3.7293 5.73027 -3.39998
RightShoulder  0.00195592 7.3222 4.34131
RightArm  -49.184 -25.7405 65.8813
RightForeArm  31.6188 10.9491 1.95136
RightHand  0.838618 -9.26602 -9.94367
LeftShoulder1  0.0178362 1.6853 -12.5781
LeftArm  -36.1709 13.9302 -57.4509
LeftForeArm  34.47 -11.9136 -2.12477
LeftHand  0.138359 2.19256 6.8291
HEad  -10.7541 16.1909 -8.16094
RightUpLeg  -8.5414 -11.1307 -3.17114
RightLeg  9.74052 -12.1033 -1.26984
RightFoot  1.48831 0.0165714 -0.275742
RightToes  -33.8778 -0.171515 -0.277994
656
root  47.3617 34.8813 47.2162 -169.404 55.9059 -178.805
LeftUpLeg  -16.4959 15.2747 -0.279493
LeftLeg  11.5068 9.74148 1.33076
LeftFoot  4.97954 -0.0386754 0.889429
LeftToes  -18.3041 1.61378e-006 8.80029e-008
Spine  1.85869 2.92814 -1.73923
Spine1  3.61424 5.92082 -3.18898
RightShoulder  0.0136561 7.31474 4.41911
RightArm  -48.459 -22.5011 67.3661
RightForeArm  30.0389 10.9121 1.94561
RightHand  0.708767 -9.30884 -8.31331
LeftShoulder1  0.0171296 1.81962 -12.7898
LeftArm  -36.9094 14.2111 -58.8287
LeftForeArm  35.1205 -10.5932 -1.88308
LeftHand  0.160305 2.63619 6.57121
HEad  -11.1788 18.4606 -9.15236
RightUpLeg  -8.6905 -10.7188 -3.27179
RightLeg  8.68365 -9.76582 -0.846604
RightFoot  2.50056 0.0251824 -0.394973
RightToes  -35.1012 -0.180579 -0.285811
657
root  47.2853 34.901 47.4156 -169.459 58.2335 -178.641
LeftUpLeg  -16.1195 15.3107 0.0453489
LeftLeg  11.1721 12.0624 1.57262
LeftFoot  5.56817 -0.0595221 1.22158
LeftToes  -18.4202 1.61378e-006 8.80029e-008
Spine  1.87625 2.97463 -1.46461
Spine1  3.64676 6.02307 -2.68462
RightShoulder  0.0187764 7.00719 4.22241
RightArm  -46.1267 -19.4694 69.3392
RightForeArm  28.5293 12.5502 2.24681
RightHand  0.616846 -9.43256 -7.09143
LeftShoulder1  0.0167041 1.81801 -12.6607
LeftArm  -37.7162 14.3858 -61.0045
LeftForeArm  35.8606 -9.81306 -1.74102
LeftHand  0.173618 3.08497 6.05717
HEad  -11.7056 20.3271 -10.1108
RightUpLeg  -9.02432 -11.4066 -3.15186
RightLeg  8.39807 -6.6606 -0.545542
RightFoot  2.81033 0.0195321 -0.295997
RightToes  -35.2477 -0.179053 -0.284475
658
root  47.2327 34.9 47.6806 -169.396 60.1572 -178.371
LeftUpLeg  -15.9797 15.8099 0.484962
LeftLeg  11.1207 13.4823 1.74237
LeftFoot  6.02081 -0.0774026 1.47173
LeftToes  -18.6496 1.61378e-006 8.80029e-008
Spine  1.94607 2.95201 -1.19686
Spine1  3.78093 5.98356 -2.18989
RightShoulder  0.0238873 6.83234 4.39308
RightArm  -43.102 -16.6303 71.2265
RightForeArm  27.9236 14.6381 2.63597
RightHand  0.493677 -8.98377 -5.9036
LeftShoulder1  0.016507 1.68993 -12.1049
LeftArm  -37.2606 14.6268 -63.4566
LeftForeArm  34.886 -10.0648 -1.78742
LeftHand  0.177726 3.42411 5.55951
HEad  -12.5741 21.986 -10.5882
RightUpLeg  -9.65263 -11.41 -2.74599
RightLeg  8.77248 -4.73587 -0.419247
RightFoot  2.61403 0.0128961 -0.187624
RightToes  -34.2842 -0.173091 -0.279302
659
root  47.1998 34.8999 47.986 -169.045 61.568 -177.756
LeftUpLeg  -15.9066 16.125 1.19116
LeftLeg  11.1497 14.6029 1.8916
LeftFoot  6.56391 -0.0995042 1.73509
LeftToes  -19.2133 1.61378e-006 8.80029e-008
Spine  2.05747 2.85634 -0.879746
Spine1  3.99052 5.80053 -1.5971
RightShoulder  0.0336109 6.71353 4.95258
RightArm  -38.921 -14.1221 72.7133
RightForeArm  27.6557 16.8534 3.05735
RightHand  0.408038 -8.3242 -5.22865
LeftShoulder1  0.0164856 1.62198 -11.6241
LeftArm  -35.2805 14.5739 -65.6278
LeftForeArm  32.6974 -10.9664 -1.95294
LeftHand  0.170813 3.49988 5.20627
HEad  -13.4735 23.4667 -10.7425
RightUpLeg  -10.2759 -11.0417 -2.09248
RightLeg  9.40581 -3.62842 -0.361566
RightFoot  2.38365 0.00889614 -0.12413
RightToes  -33.3761 -0.167847 -0.274733
